<?xml version="1.0" encoding="UTF-8" standalone="no"?>
<!DOCTYPE svg PUBLIC "-//W3C//DTD SVG 1.1//EN"
 "http://www.w3.org/Graphics/SVG/1.1/DTD/svg11.dtd">
<!-- Generated by graphviz version 12.2.1 (20241206.2353)
 -->
<!-- Title: G Pages: 1 -->
<svg width="1471pt" height="205pt"
 viewBox="0.00 0.00 1470.75 205.00" xmlns="http://www.w3.org/2000/svg" xmlns:xlink="http://www.w3.org/1999/xlink">
<g id="graph0" class="graph" transform="scale(1 1) rotate(0) translate(4 201)">
<title>G</title>
<g id="clust1" class="cluster">
<title>cluster_cust</title>
<path fill="none" stroke="#30363d" stroke-dasharray="5,2" d="M20,-47C20,-47 415.62,-47 415.62,-47 421.62,-47 427.62,-53 427.62,-59 427.62,-59 427.62,-140 427.62,-140 427.62,-146 421.62,-152 415.62,-152 415.62,-152 20,-152 20,-152 14,-152 8,-146 8,-140 8,-140 8,-59 8,-59 8,-53 14,-47 20,-47"/>
<text text-anchor="middle" x="217.81" y="-136.6" font-family="Times New Roman,serif" font-size="12.00" fill="#c9d1d9">Customer Network</text>
</g>
<g id="clust2" class="cluster">
<title>cluster_cloud</title>
<path fill="none" stroke="#30363d" stroke-dasharray="5,2" d="M697,-12C697,-12 1182.25,-12 1182.25,-12 1188.25,-12 1194.25,-18 1194.25,-24 1194.25,-24 1194.25,-177 1194.25,-177 1194.25,-183 1188.25,-189 1182.25,-189 1182.25,-189 697,-189 697,-189 691,-189 685,-183 685,-177 685,-177 685,-24 685,-24 685,-18 691,-12 697,-12"/>
<text text-anchor="middle" x="939.62" y="-173.6" font-family="Times New Roman,serif" font-size="12.00" fill="#c9d1d9">SaaS Cloud</text>
</g>
<!-- agent -->
<g id="node1" class="node">
<title>agent</title>
<path fill="#161b22" stroke="#30363d" stroke-width="1.2" d="M116,-108.5C116,-108.5 28,-108.5 28,-108.5 22,-108.5 16,-102.5 16,-96.5 16,-96.5 16,-79.5 16,-79.5 16,-73.5 22,-67.5 28,-67.5 28,-67.5 116,-67.5 116,-67.5 122,-67.5 128,-73.5 128,-79.5 128,-79.5 128,-96.5 128,-96.5 128,-102.5 122,-108.5 116,-108.5"/>
<text text-anchor="middle" x="72" y="-91.2" font-family="Times New Roman,serif" font-size="14.00" fill="#c9d1d9">ACME Agent</text>
<text text-anchor="middle" x="72" y="-74.7" font-family="Times New Roman,serif" font-size="14.00" fill="#c9d1d9">(systemd service)</text>
</g>
<!-- fw -->
<g id="node2" class="node">
<title>fw</title>
<polygon fill="#0d1117" stroke="#30363d" stroke-width="1.2" points="419.62,-122 282.88,-122 282.88,-86 419.62,-86 419.62,-122"/>
<text text-anchor="middle" x="351.25" y="-98.95" font-family="Times New Roman,serif" font-size="14.00" fill="#c9d1d9">Egress Firewall/Proxy</text>
</g>
<!-- agent&#45;&gt;fw -->
<g id="edge1" class="edge">
<title>agent&#45;&gt;fw</title>
<path fill="none" stroke="#8b949e" stroke-width="1.3" d="M128.44,-91.2C169.48,-93.57 225.94,-96.83 271.64,-99.46"/>
<polygon fill="#8b949e" stroke="#8b949e" stroke-width="1.3" points="271.27,-102.6 280.44,-99.97 271.63,-96.31 271.27,-102.6"/>
<text text-anchor="middle" x="199.62" y="-100.63" font-family="Times New Roman,serif" font-size="14.00" fill="#8b949e">TLS 1.2+ 443</text>
</g>
<!-- note1 -->
<g id="node6" class="node">
<title>note1</title>
<polygon fill="#0d1117" stroke="#30363d" stroke-width="1.2" points="425.25,-36 271.25,-36 271.25,0 431.25,0 431.25,-30 425.25,-36"/>
<polyline fill="none" stroke="#30363d" stroke-width="1.2" points="425.25,-36 425.25,-30"/>
<polyline fill="none" stroke="#30363d" stroke-width="1.2" points="431.25,-30 425.25,-30"/>
<text text-anchor="middle" x="351.25" y="-12.95" font-family="Times New Roman,serif" font-size="14.00" fill="#c9d1d9">No inbound ports required</text>
</g>
<!-- agent&#45;&gt;note1 -->
<g id="edge5" class="edge">
<title>agent&#45;&gt;note1</title>
<path fill="none" stroke="#484f58" stroke-width="1.3" stroke-dasharray="1,5" d="M128.44,-74C171.11,-63.23 230.46,-48.25 277.03,-36.49"/>
</g>
<!-- api -->
<g id="node3" class="node">
<title>api</title>
<polygon fill="#0d1117" stroke="#30363d" stroke-width="1.2" points="901,-124.5 693,-124.5 693,-83.5 901,-83.5 901,-124.5"/>
<text text-anchor="middle" x="797" y="-107.2" font-family="Times New Roman,serif" font-size="14.00" fill="#c9d1d9">Agent Ingress</text>
<text text-anchor="middle" x="797" y="-90.7" font-family="Times New Roman,serif" font-size="14.00" fill="#c9d1d9">agent.cloudflow.goodweb.com:443</text>
</g>
<!-- fw&#45;&gt;api -->
<g id="edge2" class="edge">
<title>fw&#45;&gt;api</title>
<path fill="none" stroke="#8b949e" stroke-width="1.3" d="M419.65,-104C489.21,-104 599,-104 682.08,-104"/>
<polygon fill="#8b949e" stroke="#8b949e" stroke-width="1.3" points="681.88,-107.15 690.88,-104 681.88,-100.85 681.88,-107.15"/>
<text text-anchor="middle" x="562.12" y="-107.2" font-family="Times New Roman,serif" font-size="14.00" fill="#8b949e">allowlist *.cloudflow.goodweb.com</text>
</g>
<!-- ctrl -->
<g id="node4" class="node">
<title>ctrl</title>
<path fill="#161b22" stroke="#30363d" stroke-width="1.2" d="M1174.25,-67.5C1174.25,-67.5 1096,-67.5 1096,-67.5 1090,-67.5 1084,-61.5 1084,-55.5 1084,-55.5 1084,-38.5 1084,-38.5 1084,-32.5 1090,-26.5 1096,-26.5 1096,-26.5 1174.25,-26.5 1174.25,-26.5 1180.25,-26.5 1186.25,-32.5 1186.25,-38.5 1186.25,-38.5 1186.25,-55.5 1186.25,-55.5 1186.25,-61.5 1180.25,-67.5 1174.25,-67.5"/>
<text text-anchor="middle" x="1135.12" y="-50.2" font-family="Times New Roman,serif" font-size="14.00" fill="#c9d1d9">Control Plane</text>
<text text-anchor="middle" x="1135.12" y="-33.7" font-family="Times New Roman,serif" font-size="14.00" fill="#c9d1d9">(config, tokens)</text>
</g>
<!-- api&#45;&gt;ctrl -->
<g id="edge3" class="edge">
<title>api&#45;&gt;ctrl</title>
<path fill="none" stroke="#8b949e" stroke-width="1.3" d="M901.13,-86.51C957.47,-76.96 1025.3,-65.45 1073.21,-57.33"/>
<polygon fill="#8b949e" stroke="#8b949e" stroke-width="1.3" points="1073.44,-60.49 1081.79,-55.88 1072.39,-54.27 1073.44,-60.49"/>
<text text-anchor="middle" x="992.5" y="-83.81" font-family="Times New Roman,serif" font-size="14.00">register / fetch config</text>
</g>
<!-- telem -->
<g id="node5" class="node">
<title>telem</title>
<path fill="#161b22" stroke="#30363d" stroke-width="1.2" d="M1167.12,-158.5C1167.12,-158.5 1103.12,-158.5 1103.12,-158.5 1097.12,-158.5 1091.12,-152.5 1091.12,-146.5 1091.12,-146.5 1091.12,-129.5 1091.12,-129.5 1091.12,-123.5 1097.12,-117.5 1103.12,-117.5 1103.12,-117.5 1167.12,-117.5 1167.12,-117.5 1173.12,-117.5 1179.12,-123.5 1179.12,-129.5 1179.12,-129.5 1179.12,-146.5 1179.12,-146.5 1179.12,-152.5 1173.12,-158.5 1167.12,-158.5"/>
<text text-anchor="middle" x="1135.12" y="-141.2" font-family="Times New Roman,serif" font-size="14.00" fill="#c9d1d9">Telemetry</text>
<text text-anchor="middle" x="1135.12" y="-124.7" font-family="Times New Roman,serif" font-size="14.00" fill="#c9d1d9">(health, logs)</text>
</g>
<!-- api&#45;&gt;telem -->
<g id="edge4" class="edge">
<title>api&#45;&gt;telem</title>
<path fill="none" stroke="#8b949e" stroke-width="1.3" d="M901.13,-114.43C960.21,-120.41 1031.95,-127.66 1080.07,-132.53"/>
<polygon fill="#8b949e" stroke="#8b949e" stroke-width="1.3" points="1079.65,-135.66 1088.92,-133.43 1080.28,-129.39 1079.65,-135.66"/>
<text text-anchor="middle" x="992.5" y="-132.08" font-family="Times New Roman,serif" font-size="14.00">healthbeat</text>
</g>
<!-- note2 -->
<g id="node7" class="node">
<title>note2</title>
<polygon fill="#0d1117" stroke="#30363d" stroke-width="1.2" points="1456.75,-65 1253.25,-65 1253.25,-29 1462.75,-29 1462.75,-59 1456.75,-65"/>
<polyline fill="none" stroke="#30363d" stroke-width="1.2" points="1456.75,-65 1456.75,-59"/>
<polyline fill="none" stroke="#30363d" stroke-width="1.2" points="1462.75,-59 1456.75,-59"/>
<text text-anchor="middle" x="1358" y="-41.95" font-family="Times New Roman,serif" font-size="14.00" fill="#c9d1d9">Rotate provisioning token regularly</text>
</g>
<!-- ctrl&#45;&gt;note2 -->
<g id="edge6" class="edge">
<title>ctrl&#45;&gt;note2</title>
<path fill="none" stroke="#484f58" stroke-width="1.3" stroke-dasharray="1,5" d="M1186.52,-47C1206.38,-47 1229.97,-47 1253.16,-47"/>
</g>
</g>
</svg>
