<?xml version="1.0" encoding="UTF-8" standalone="no"?>
<!DOCTYPE svg PUBLIC "-//W3C//DTD SVG 1.1//EN"
 "http://www.w3.org/Graphics/SVG/1.1/DTD/svg11.dtd">
<!-- Generated by graphviz version 12.2.1 (20241206.2353)
 -->
<!-- Title: G Pages: 1 -->
<svg width="933pt" height="216pt"
 viewBox="0.00 0.00 933.46 216.35" xmlns="http://www.w3.org/2000/svg" xmlns:xlink="http://www.w3.org/1999/xlink">
<g id="graph0" class="graph" transform="scale(1 1) rotate(0) translate(4 212.35)">
<title>G</title>
<!-- user -->
<g id="node1" class="node">
<title>user</title>
<path fill="#161b22" stroke="#30363d" stroke-width="1.2" d="M79,-137C79,-137 12,-137 12,-137 6,-137 0,-131 0,-125 0,-125 0,-113 0,-113 0,-107 6,-101 12,-101 12,-101 79,-101 79,-101 85,-101 91,-107 91,-113 91,-113 91,-125 91,-125 91,-131 85,-137 79,-137"/>
<text text-anchor="middle" x="45.5" y="-113.95" font-family="Times New Roman,serif" font-size="14.00" fill="#c9d1d9">User Browser</text>
</g>
<!-- app -->
<g id="node2" class="node">
<title>app</title>
<path fill="#161b22" stroke="#30363d" stroke-width="1.2" d="M475.25,-132.5C475.25,-132.5 316,-132.5 316,-132.5 310,-132.5 304,-126.5 304,-120.5 304,-120.5 304,-103.5 304,-103.5 304,-97.5 310,-91.5 316,-91.5 316,-91.5 475.25,-91.5 475.25,-91.5 481.25,-91.5 487.25,-97.5 487.25,-103.5 487.25,-103.5 487.25,-120.5 487.25,-120.5 487.25,-126.5 481.25,-132.5 475.25,-132.5"/>
<text text-anchor="middle" x="395.62" y="-115.2" font-family="Times New Roman,serif" font-size="14.00" fill="#c9d1d9">CloudFlow Pro</text>
<text text-anchor="middle" x="395.62" y="-98.7" font-family="Times New Roman,serif" font-size="14.00" fill="#c9d1d9">(app.cloudflow.goodweb.com)</text>
</g>
<!-- user&#45;&gt;app -->
<g id="edge1" class="edge">
<title>user&#45;&gt;app</title>
<path fill="none" stroke="#8b949e" stroke-width="1.2" d="M77.42,-100.6C91.18,-93.44 107.89,-86.1 124,-82.5 185.89,-68.65 257.26,-77.43 311.16,-88.92"/>
<polygon fill="#8b949e" stroke="#8b949e" stroke-width="1.2" points="310.49,-91.63 318.9,-90.62 311.69,-86.17 310.49,-91.63"/>
<text text-anchor="middle" x="197.5" y="-85.7" font-family="Times New Roman,serif" font-size="14.00">GET /login</text>
</g>
<!-- user&#45;&gt;app -->
<g id="edge4" class="edge">
<title>user&#45;&gt;app</title>
<path fill="none" stroke="#8b949e" stroke-width="1.2" d="M91.3,-118.1C142.23,-117.08 227,-115.37 293.99,-114.02"/>
<polygon fill="#8b949e" stroke="#8b949e" stroke-width="1.2" points="293.98,-116.82 301.92,-113.86 293.87,-111.23 293.98,-116.82"/>
<text text-anchor="middle" x="197.5" y="-120.51" font-family="Times New Roman,serif" font-size="14.00">POST Assertion / Callback</text>
</g>
<!-- idp -->
<g id="node3" class="node">
<title>idp</title>
<path fill="#161b22" stroke="#30363d" stroke-width="1.2" d="M890.61,-195C890.61,-195 792.11,-195 792.11,-195 786.11,-195 780.11,-189 780.11,-183 780.11,-183 780.11,-171 780.11,-171 780.11,-165 786.11,-159 792.11,-159 792.11,-159 890.61,-159 890.61,-159 896.61,-159 902.61,-165 902.61,-171 902.61,-171 902.61,-183 902.61,-183 902.61,-189 896.61,-195 890.61,-195"/>
<text text-anchor="middle" x="841.36" y="-171.95" font-family="Times New Roman,serif" font-size="14.00" fill="#c9d1d9">IdP (SAML/OIDC)</text>
</g>
<!-- app&#45;&gt;idp -->
<g id="edge2" class="edge">
<title>app&#45;&gt;idp</title>
<path fill="none" stroke="#8b949e" stroke-width="1.2" d="M487.49,-125.31C571.26,-137.58 693.84,-155.54 770.27,-166.73"/>
<polygon fill="#8b949e" stroke="#8b949e" stroke-width="1.2" points="769.7,-169.48 778.02,-167.87 770.51,-163.94 769.7,-169.48"/>
<text text-anchor="middle" x="622.25" y="-162.77" font-family="Times New Roman,serif" font-size="14.00">Redirect: AuthnRequest / OIDC Auth</text>
</g>
<!-- app&#45;&gt;idp -->
<g id="edge5" class="edge">
<title>app&#45;&gt;idp</title>
<path fill="none" stroke="#8b949e" stroke-width="1.2" d="M487.43,-96.19C554.22,-87.89 646.52,-83.49 724.25,-105.5 756.71,-114.69 789.01,-135.81 811.27,-152.72"/>
<polygon fill="#8b949e" stroke="#8b949e" stroke-width="1.2" points="809.53,-154.91 817.56,-157.62 812.97,-150.49 809.53,-154.91"/>
<text text-anchor="middle" x="622.25" y="-108.7" font-family="Times New Roman,serif" font-size="14.00">Validate (metadata/keys)</text>
</g>
<!-- session -->
<g id="node4" class="node">
<title>session</title>
<ellipse fill="#0d1117" stroke="#30363d" stroke-width="1.6" cx="841.36" cy="-18" rx="84.11" ry="18"/>
<text text-anchor="middle" x="841.36" y="-12.95" font-family="Times New Roman,serif" font-size="14.00" fill="#c9d1d9">Session Established</text>
</g>
<!-- app&#45;&gt;session -->
<g id="edge6" class="edge">
<title>app&#45;&gt;session</title>
<path fill="none" stroke="#8b949e" stroke-width="1.2" d="M471.59,-91.06C487.6,-86.85 504.44,-82.61 520.25,-79 603.44,-60 699.72,-42.21 764.79,-30.8"/>
<polygon fill="#8b949e" stroke="#8b949e" stroke-width="1.2" points="764.97,-33.62 772.37,-29.48 764.01,-28.1 764.97,-33.62"/>
</g>
<!-- idp&#45;&gt;user -->
<g id="edge3" class="edge">
<title>idp&#45;&gt;user</title>
<path fill="none" stroke="#8b949e" stroke-width="1.2" d="M779.85,-182.58C761.96,-183.99 742.33,-185.3 724.25,-186 457.02,-196.34 385.62,-199.44 124,-144 116.16,-142.34 108,-140.19 100.03,-137.85"/>
<polygon fill="#8b949e" stroke="#8b949e" stroke-width="1.2" points="92.55,-135.56 101.25,-134.46 95.01,-136.21 100.23,-137.8 100.2,-137.9 100.17,-137.99 94.95,-136.4 99.15,-141.34 92.55,-135.56"/>
<text text-anchor="middle" x="395.62" y="-195.05" font-family="Times New Roman,serif" font-size="14.00">Login (MFA, etc.)</text>
</g>
<!-- session&#45;&gt;user -->
<g id="edge7" class="edge">
<title>session&#45;&gt;user</title>
<path fill="none" stroke="#8b949e" stroke-width="1.2" d="M766.17,-9.56C632.94,2.73 346.34,16.05 124,-65 105.8,-71.63 87.9,-83.64 73.89,-94.66"/>
<polygon fill="#8b949e" stroke="#8b949e" stroke-width="1.2" points="72.39,-92.27 67.94,-99.48 75.92,-96.62 72.39,-92.27"/>
<text text-anchor="middle" x="395.62" y="-21.35" font-family="Times New Roman,serif" font-size="14.00">Set cookie / token</text>
</g>
</g>
</svg>
