<svg xmlns="http://www.w3.org/2000/svg" width="1000" height="414" viewBox="0 0 1000 414" font-family="'Segoe UI', 'Helvetica Neue', Helvetica, Arial, sans-serif" role="img" aria-label="Orbitask release and API version timeline">
<title>Orbitask release and API version timeline</title>
<style>@media (prefers-color-scheme: dark){.panel{fill:#0d1117;stroke:#30363d}.t{fill:#e6edf3}.t-muted{fill:#9da7b3}.ln{stroke:#8b949e}.ah{fill:#8b949e}.panel-bg{fill:#0d1117}.group-bg{fill:#151b23}.r-start{fill:#21262d;stroke:#8b949e}.r-decision{fill:#3a2e10;stroke:#d4a72c}.r-action{fill:#16263f;stroke:#5b8de0}.r-service{fill:#3b1716;stroke:#f0786e}.r-done{fill:#11301d;stroke:#46b56a}.r-neutral{fill:#1c2128;stroke:#6e7681}.r-data{fill:#2a1f3d;stroke:#a371f7}.r-external{fill:#14261a;stroke:#4fa565}.r-group{fill:#151b23;stroke:#2f3742}}</style>
<rect class="panel" x="0.75" y="0.75" width="998.5" height="412.5" rx="10" fill="#ffffff" stroke="#d0d7de" stroke-width="1.5"/>
<rect class="r-group" x="20" y="20" width="960" height="128" rx="10" fill="#f6f8fa" stroke="#d0d7de" stroke-width="1.5"/>
<text class="t-muted" x="32.0" y="40.5" font-size="11.0" font-weight="bold" text-anchor="start" fill="#57606a">RELEASES</text>
<rect class="r-group" x="20" y="172" width="960" height="222" rx="10" fill="#f6f8fa" stroke="#d0d7de" stroke-width="1.5"/>
<text class="t-muted" x="32.0" y="192.5" font-size="11.0" font-weight="bold" text-anchor="start" fill="#57606a">API VERSIONS</text>
<rect class="r-neutral" x="40" y="62" width="190" height="64" rx="8" fill="#f6f8fa" stroke="#8c959f" stroke-width="1.5"/>
<text class="t" x="135.0" y="89.2" font-size="13" font-weight="bold" text-anchor="middle" fill="#1f2328">1.6.x</text>
<text class="t-muted" x="135.0" y="106.3" font-size="12" text-anchor="middle" fill="#57606a">support ends 2026-09-30</text>
<rect class="r-neutral" x="250" y="62" width="190" height="64" rx="8" fill="#f6f8fa" stroke="#8c959f" stroke-width="1.5"/>
<text class="t" x="345.0" y="89.2" font-size="13" font-weight="bold" text-anchor="middle" fill="#1f2328">1.7.0 / 1.7.2</text>
<text class="t-muted" x="345.0" y="106.3" font-size="12" text-anchor="middle" fill="#57606a">June–July 2026</text>
<rect class="r-done" x="460" y="62" width="190" height="64" rx="8" fill="#e6f4ea" stroke="#3f9b5a" stroke-width="1.5"/>
<text class="t" x="555.0" y="89.2" font-size="13" font-weight="bold" text-anchor="middle" fill="#1f2328">1.8.0 · current</text>
<text class="t-muted" x="555.0" y="106.3" font-size="12" text-anchor="middle" fill="#57606a">released 2026-08-18</text>
<rect class="r-neutral" x="770" y="62" width="190" height="64" rx="8" fill="#f6f8fa" stroke="#8c959f" stroke-width="1.5" stroke-dasharray="5 4"/>
<text class="t" x="865.0" y="89.2" font-size="13" font-weight="bold" text-anchor="middle" fill="#1f2328">1.9.0</text>
<text class="t-muted" x="865.0" y="106.3" font-size="12" text-anchor="middle" fill="#57606a">planned Q2 2027</text>
<path class="ln" d="M 230,94.0 L 240,94.0" fill="none" stroke="#57606a" stroke-width="1.6" stroke-linejoin="round"/>
<polygon class="ah" points="250.0,94.0 240.0,98.5 240.0,89.5" fill="#57606a"/>
<path class="ln" d="M 440,94.0 L 450,94.0" fill="none" stroke="#57606a" stroke-width="1.6" stroke-linejoin="round"/>
<polygon class="ah" points="460.0,94.0 450.0,98.5 450.0,89.5" fill="#57606a"/>
<path class="ln" d="M 650,94.0 L 760,94.0" fill="none" stroke="#57606a" stroke-width="1.6" stroke-linejoin="round" stroke-dasharray="5 4"/>
<polygon class="ah" points="770.0,94.0 760.0,98.5 760.0,89.5" fill="#57606a"/>
<path class="ln" d="M 555,126 L 555,380" fill="none" stroke="#57606a" stroke-width="1.6" stroke-linejoin="round" stroke-dasharray="5 4"/>
<rect class="group-bg" x="558.0" y="188.0" width="220.8" height="18.6" fill="#f6f8fa"/>
<text class="t-muted" x="563.0" y="202.0" font-size="12" font-weight="bold" text-anchor="start" fill="#57606a">1.8.0 deprecates v1 and completes v2</text>
<rect class="r-action" x="40" y="222" width="515" height="54.32" rx="8" fill="#eaf1fd" stroke="#5b84d1" stroke-width="1.5"/>
<text class="t" x="297.5" y="244.3" font-size="13" font-weight="bold" text-anchor="middle" fill="#1f2328">API v1</text>
<text class="t-muted" x="297.5" y="261.5" font-size="12" text-anchor="middle" fill="#57606a">all endpoints</text>
<rect class="r-service" x="555" y="222" width="145" height="54.32" rx="8" fill="#fdecea" stroke="#cf3f35" stroke-width="1.5" stroke-dasharray="5 4"/>
<text class="t" x="627.5" y="244.3" font-size="13" font-weight="bold" text-anchor="middle" fill="#1f2328">Deprecated</text>
<text class="t-muted" x="627.5" y="261.5" font-size="12" text-anchor="middle" fill="#57606a">90 days</text>
<rect class="r-service" x="722" y="216" width="238" height="62" rx="8" fill="#fdecea" stroke="#cf3f35" stroke-width="1.5"/>
<text class="t" x="841.0" y="242.2" font-size="13" font-weight="bold" text-anchor="middle" fill="#1f2328">API v1 end of life · 2026-11-16</text>
<text class="t-muted" x="841.0" y="259.4" font-size="12" text-anchor="middle" fill="#57606a">v1 calls return 410 Gone</text>
<path class="ln" d="M 700,247 L 722,247" fill="none" stroke="#57606a" stroke-width="1.6" stroke-linejoin="round"/>
<rect class="r-done" x="555" y="318" width="385" height="54.32" rx="8" fill="#e6f4ea" stroke="#3f9b5a" stroke-width="1.5"/>
<text class="t" x="747.5" y="340.4" font-size="13" font-weight="bold" text-anchor="middle" fill="#1f2328">API v2</text>
<text class="t-muted" x="747.5" y="357.5" font-size="12" text-anchor="middle" fill="#57606a">current for all endpoints</text>
<path class="ln" d="M 630,272 L 630,308" fill="none" stroke="#57606a" stroke-width="1.6" stroke-linejoin="round"/>
<polygon class="ah" points="630.0,318.0 625.5,308.0 634.5,308.0" fill="#57606a"/>
<rect class="group-bg" x="635.0" y="286.0" width="54.2" height="18.6" fill="#f6f8fa"/>
<text class="t-muted" x="640.0" y="300.0" font-size="12" font-weight="bold" text-anchor="start" fill="#57606a">migrate</text>
</svg>
