<?xml version="1.0" encoding="UTF-8" standalone="no"?>
<!DOCTYPE svg PUBLIC "-//W3C//DTD SVG 1.1//EN"
 "http://www.w3.org/Graphics/SVG/1.1/DTD/svg11.dtd">
<!-- Generated by graphviz version 12.2.1 (20241206.2353)
 -->
<!-- Title: G Pages: 1 -->
<svg width="564pt" height="45pt"
 viewBox="0.00 0.00 564.00 44.50" xmlns="http://www.w3.org/2000/svg" xmlns:xlink="http://www.w3.org/1999/xlink">
<g id="graph0" class="graph" transform="scale(1 1) rotate(0) translate(4 40.5)">
<title>G</title>
<!-- client -->
<g id="node1" class="node">
<title>client</title>
<path fill="#e3f2fd" stroke="black" d="M68.5,-36.5C68.5,-36.5 12,-36.5 12,-36.5 6,-36.5 0,-30.5 0,-24.5 0,-24.5 0,-12 0,-12 0,-6 6,0 12,0 12,0 68.5,0 68.5,0 74.5,0 80.5,-6 80.5,-12 80.5,-12 80.5,-24.5 80.5,-24.5 80.5,-30.5 74.5,-36.5 68.5,-36.5"/>
<text text-anchor="middle" x="40.25" y="-19.2" font-family="Calibri" font-size="14.00">Client</text>
<text text-anchor="middle" x="40.25" y="-4.95" font-family="Calibri" font-size="14.00">Application</text>
</g>
<!-- apigw -->
<g id="node2" class="node">
<title>apigw</title>
<path fill="#e8f5e9" stroke="black" d="M298.75,-36.5C298.75,-36.5 257.25,-36.5 257.25,-36.5 251.25,-36.5 245.25,-30.5 245.25,-24.5 245.25,-24.5 245.25,-12 245.25,-12 245.25,-6 251.25,0 257.25,0 257.25,0 298.75,0 298.75,0 304.75,0 310.75,-6 310.75,-12 310.75,-12 310.75,-24.5 310.75,-24.5 310.75,-30.5 304.75,-36.5 298.75,-36.5"/>
<text text-anchor="middle" x="278" y="-19.2" font-family="Calibri" font-size="14.00">API</text>
<text text-anchor="middle" x="278" y="-4.95" font-family="Calibri" font-size="14.00">Gateway</text>
</g>
<!-- client&#45;&gt;apigw -->
<g id="edge1" class="edge">
<title>client&#45;&gt;apigw</title>
<path fill="none" stroke="black" stroke-width="2" d="M80.98,-18.25C122.84,-18.25 188.63,-18.25 232.28,-18.25"/>
<polygon fill="black" stroke="black" stroke-width="2" points="232.04,-21.75 242.04,-18.25 232.04,-14.75 232.04,-21.75"/>
<text text-anchor="middle" x="162.88" y="-19.2" font-family="Calibri" font-size="14.00">HTTP Request</text>
</g>
<!-- service -->
<g id="node3" class="node">
<title>service</title>
<path fill="#fff3e0" stroke="black" d="M544,-36.5C544,-36.5 504,-36.5 504,-36.5 498,-36.5 492,-30.5 492,-24.5 492,-24.5 492,-12 492,-12 492,-6 498,0 504,0 504,0 544,0 544,0 550,0 556,-6 556,-12 556,-12 556,-24.5 556,-24.5 556,-30.5 550,-36.5 544,-36.5"/>
<text text-anchor="middle" x="524" y="-19.2" font-family="Calibri" font-size="14.00">Business</text>
<text text-anchor="middle" x="524" y="-4.95" font-family="Calibri" font-size="14.00">Service</text>
</g>
<!-- apigw&#45;&gt;service -->
<g id="edge2" class="edge">
<title>apigw&#45;&gt;service</title>
<path fill="none" stroke="black" stroke-width="2" d="M311.15,-18.25C354.09,-18.25 430.35,-18.25 478.7,-18.25"/>
<polygon fill="black" stroke="black" stroke-width="2" points="478.53,-21.75 488.53,-18.25 478.53,-14.75 478.53,-21.75"/>
<text text-anchor="middle" x="401.38" y="-19.2" font-family="Calibri" font-size="14.00">Route &amp; Validate</text>
</g>
</g>
</svg>
