<svg xmlns="http://www.w3.org/2000/svg" width="900" height="796" viewBox="0 0 900 796" font-family="'Segoe UI', 'Helvetica Neue', Helvetica, Arial, sans-serif" role="img" aria-label="Orbitask webhook delivery topology">
<title>Orbitask webhook delivery topology</title>
<style>@media (prefers-color-scheme: dark){.panel{fill:#0d1117;stroke:#30363d}.t{fill:#e6edf3}.t-muted{fill:#9da7b3}.ln{stroke:#8b949e}.ah{fill:#8b949e}.panel-bg{fill:#0d1117}.group-bg{fill:#151b23}.r-start{fill:#21262d;stroke:#8b949e}.r-decision{fill:#3a2e10;stroke:#d4a72c}.r-action{fill:#16263f;stroke:#5b8de0}.r-service{fill:#3b1716;stroke:#f0786e}.r-done{fill:#11301d;stroke:#46b56a}.r-neutral{fill:#1c2128;stroke:#6e7681}.r-data{fill:#2a1f3d;stroke:#a371f7}.r-external{fill:#14261a;stroke:#4fa565}.r-group{fill:#151b23;stroke:#2f3742}}</style>
<rect class="panel" x="0.75" y="0.75" width="898.5" height="794.5" rx="10" fill="#ffffff" stroke="#d0d7de" stroke-width="1.5"/>
<rect class="r-group" x="20" y="20" width="860" height="104" rx="10" fill="#f6f8fa" stroke="#d0d7de" stroke-width="1.5"/>
<text class="t-muted" x="32.0" y="40.5" font-size="11.0" font-weight="bold" text-anchor="start" fill="#57606a">EVENT SOURCES · ORBITASK SERVICES</text>
<rect class="r-group" x="130" y="166" width="330" height="520" rx="10" fill="#f6f8fa" stroke="#d0d7de" stroke-width="1.5"/>
<text class="t-muted" x="142.0" y="186.5" font-size="11.0" font-weight="bold" text-anchor="start" fill="#57606a">WEBHOOK PIPELINE</text>
<rect class="r-group" x="620" y="340" width="260" height="210" rx="10" fill="#f6f8fa" stroke="#d0d7de" stroke-width="1.5"/>
<text class="t-muted" x="632.0" y="360.5" font-size="11.0" font-weight="bold" text-anchor="start" fill="#57606a">CUSTOMER ENDPOINTS</text>
<rect class="r-neutral" x="60" y="56" width="240" height="48" rx="8" fill="#f6f8fa" stroke="#8c959f" stroke-width="1.5"/>
<text class="t" x="180.0" y="83.8" font-size="13" font-weight="bold" text-anchor="middle" fill="#1f2328">Projects and tasks service</text>
<path class="ln" d="M 180,104 L 180,146" fill="none" stroke="#57606a" stroke-width="1.6" stroke-linejoin="round"/>
<rect class="r-neutral" x="330" y="56" width="240" height="48" rx="8" fill="#f6f8fa" stroke="#8c959f" stroke-width="1.5"/>
<text class="t" x="450.0" y="83.8" font-size="13" font-weight="bold" text-anchor="middle" fill="#1f2328">Reporting service</text>
<path class="ln" d="M 450,104 L 450,146" fill="none" stroke="#57606a" stroke-width="1.6" stroke-linejoin="round"/>
<rect class="r-neutral" x="600" y="56" width="240" height="48" rx="8" fill="#f6f8fa" stroke="#8c959f" stroke-width="1.5"/>
<text class="t" x="720.0" y="83.8" font-size="13" font-weight="bold" text-anchor="middle" fill="#1f2328">Identity service</text>
<path class="ln" d="M 720,104 L 720,146" fill="none" stroke="#57606a" stroke-width="1.6" stroke-linejoin="round"/>
<path class="ln" d="M 180,146 L 720,146" fill="none" stroke="#57606a" stroke-width="1.6" stroke-linejoin="round"/>
<path class="ln" d="M 300,146 L 300,196" fill="none" stroke="#57606a" stroke-width="1.6" stroke-linejoin="round"/>
<polygon class="ah" points="300.0,206.0 295.5,196.0 304.5,196.0" fill="#57606a"/>
<rect class="r-action" x="160.0" y="206" width="280" height="54.32" rx="8" fill="#eaf1fd" stroke="#5b84d1" stroke-width="1.5"/>
<text class="t" x="300.0" y="228.3" font-size="13" font-weight="bold" text-anchor="middle" fill="#1f2328">Message queue</text>
<text class="t-muted" x="300.0" y="245.5" font-size="12" text-anchor="middle" fill="#57606a">events</text>
<path class="ln" d="M 300,258 L 300,288" fill="none" stroke="#57606a" stroke-width="1.6" stroke-linejoin="round"/>
<polygon class="ah" points="300.0,298.0 295.5,288.0 304.5,288.0" fill="#57606a"/>
<rect class="group-bg" x="307.0" y="270.0" width="46.6" height="18.6" fill="#f6f8fa"/>
<text class="t-muted" x="312.0" y="284.0" font-size="12" font-weight="bold" text-anchor="start" fill="#57606a">events</text>
<rect class="r-action" x="160.0" y="298" width="280" height="54.32" rx="8" fill="#eaf1fd" stroke="#5b84d1" stroke-width="1.5"/>
<text class="t" x="300.0" y="320.4" font-size="13" font-weight="bold" text-anchor="middle" fill="#1f2328">Formatter</text>
<text class="t-muted" x="300.0" y="337.5" font-size="12" text-anchor="middle" fill="#57606a">JSON payload + event ID</text>
<path class="ln" d="M 300,350 L 300,380" fill="none" stroke="#57606a" stroke-width="1.6" stroke-linejoin="round"/>
<polygon class="ah" points="300.0,390.0 295.5,380.0 304.5,380.0" fill="#57606a"/>
<rect class="r-action" x="160.0" y="390" width="280" height="54.32" rx="8" fill="#eaf1fd" stroke="#5b84d1" stroke-width="1.5"/>
<text class="t" x="300.0" y="412.4" font-size="13" font-weight="bold" text-anchor="middle" fill="#1f2328">Delivery service</text>
<text class="t-muted" x="300.0" y="429.5" font-size="12" text-anchor="middle" fill="#57606a">signs with HMAC-SHA256</text>
<rect class="r-external" x="640" y="380" width="220" height="54.32" rx="8" fill="#eef6ee" stroke="#5f9e6e" stroke-width="1.5"/>
<text class="t" x="750.0" y="402.4" font-size="13" font-weight="bold" text-anchor="middle" fill="#1f2328">Endpoint A</text>
<text class="t-muted" x="750.0" y="419.5" font-size="12" text-anchor="middle" fill="#57606a">hooks.acme.example</text>
<rect class="r-external" x="640" y="468" width="220" height="54.32" rx="8" fill="#eef6ee" stroke="#5f9e6e" stroke-width="1.5"/>
<text class="t" x="750.0" y="490.4" font-size="13" font-weight="bold" text-anchor="middle" fill="#1f2328">Endpoint B</text>
<text class="t-muted" x="750.0" y="507.5" font-size="12" text-anchor="middle" fill="#57606a">integrations.acme.example</text>
<path class="ln" d="M 440.0,416 L 590,416" fill="none" stroke="#57606a" stroke-width="1.6" stroke-linejoin="round"/>
<path class="ln" d="M 590,406 L 590,494" fill="none" stroke="#57606a" stroke-width="1.6" stroke-linejoin="round"/>
<path class="ln" d="M 590,406 L 630,406" fill="none" stroke="#57606a" stroke-width="1.6" stroke-linejoin="round"/>
<polygon class="ah" points="640.0,406.0 630.0,410.5 630.0,401.5" fill="#57606a"/>
<path class="ln" d="M 590,494 L 630,494" fill="none" stroke="#57606a" stroke-width="1.6" stroke-linejoin="round"/>
<polygon class="ah" points="640.0,494.0 630.0,498.5 630.0,489.5" fill="#57606a"/>
<rect class="panel-bg" x="481.8" y="372.0" width="116.5" height="34.2" fill="#ffffff"/>
<text class="t-muted" x="540.0" y="386.0" font-size="12" font-weight="bold" text-anchor="middle" fill="#57606a">HTTPS POST</text>
<text class="t-muted" x="540.0" y="401.6" font-size="12" font-weight="bold" text-anchor="middle" fill="#57606a">Orbitask-Signature</text>
<path class="ln" d="M 250,442 L 250,496" fill="none" stroke="#57606a" stroke-width="1.6" stroke-linejoin="round" stroke-dasharray="5 4"/>
<polygon class="ah" points="250.0,506.0 245.5,496.0 254.5,496.0" fill="#57606a"/>
<rect class="group-bg" x="153.5" y="454.0" width="89.5" height="34.2" fill="#f6f8fa"/>
<text class="t-muted" x="238.0" y="468.0" font-size="12" font-weight="bold" text-anchor="end" fill="#57606a">non-2xx or</text>
<text class="t-muted" x="238.0" y="483.6" font-size="12" font-weight="bold" text-anchor="end" fill="#57606a">timeout (10 s)</text>
<path class="ln" d="M 350,506 L 350,452" fill="none" stroke="#57606a" stroke-width="1.6" stroke-linejoin="round" stroke-dasharray="5 4"/>
<polygon class="ah" points="350.0,442.0 354.5,452.0 345.5,452.0" fill="#57606a"/>
<rect class="group-bg" x="357.0" y="462.0" width="86.3" height="18.6" fill="#f6f8fa"/>
<text class="t-muted" x="362.0" y="476.0" font-size="12" font-weight="bold" text-anchor="start" fill="#57606a">retry attempt</text>
<rect class="r-data" x="160.0" y="506" width="280" height="71.48" rx="8" fill="#f3ecfb" stroke="#8a63d2" stroke-width="1.5"/>
<text class="t" x="300.0" y="528.4" font-size="13" font-weight="bold" text-anchor="middle" fill="#1f2328">Retry queue</text>
<text class="t-muted" x="300.0" y="545.5" font-size="12" text-anchor="middle" fill="#57606a">exponential backoff,</text>
<text class="t-muted" x="300.0" y="562.7" font-size="12" text-anchor="middle" fill="#57606a">up to 8 attempts / ≤ 24 h</text>
<path class="ln" d="M 300,572 L 300,602" fill="none" stroke="#57606a" stroke-width="1.6" stroke-linejoin="round" stroke-dasharray="5 4"/>
<polygon class="ah" points="300.0,612.0 295.5,602.0 304.5,602.0" fill="#57606a"/>
<rect class="group-bg" x="307.0" y="584.0" width="136.0" height="18.6" fill="#f6f8fa"/>
<text class="t-muted" x="312.0" y="598.0" font-size="12" font-weight="bold" text-anchor="start" fill="#57606a">max attempts reached</text>
<rect class="r-service" x="160.0" y="612" width="280" height="54.32" rx="8" fill="#fdecea" stroke="#cf3f35" stroke-width="1.5"/>
<text class="t" x="300.0" y="634.4" font-size="13" font-weight="bold" text-anchor="middle" fill="#1f2328">Failed deliveries</text>
<text class="t-muted" x="300.0" y="651.5" font-size="12" text-anchor="middle" fill="#57606a">redeliver from Admin → Webhooks</text>
<path class="ln" d="M 300,664 L 300,710" fill="none" stroke="#57606a" stroke-width="1.6" stroke-linejoin="round" stroke-dasharray="5 4"/>
<polygon class="ah" points="300.0,720.0 295.5,710.0 304.5,710.0" fill="#57606a"/>
<path class="ln" d="M 160.0,416 L 30,416 L 30,746 L 150.0,746" fill="none" stroke="#57606a" stroke-width="1.6" stroke-linejoin="round" stroke-dasharray="5 4"/>
<polygon class="ah" points="160.0,746.0 150.0,750.5 150.0,741.5" fill="#57606a"/>
<rect class="panel-bg" x="32.0" y="574.0" width="89.8" height="34.2" fill="#ffffff"/>
<text class="t-muted" x="37.0" y="588.0" font-size="12" font-weight="bold" text-anchor="start" fill="#57606a">result of</text>
<text class="t-muted" x="37.0" y="603.6" font-size="12" font-weight="bold" text-anchor="start" fill="#57606a">every attempt</text>
<rect class="r-neutral" x="160.0" y="720" width="280" height="52" rx="8" fill="#f6f8fa" stroke="#8c959f" stroke-width="1.5"/>
<text class="t" x="300.0" y="749.8" font-size="13" font-weight="bold" text-anchor="middle" fill="#1f2328">Delivery log and workspace health</text>
</svg>
