<?xml version="1.0" encoding="UTF-8" standalone="no"?>
<!DOCTYPE svg PUBLIC "-//W3C//DTD SVG 1.1//EN"
 "http://www.w3.org/Graphics/SVG/1.1/DTD/svg11.dtd">
<!-- Generated by graphviz version 12.2.1 (20241206.2353)
 -->
<!-- Title: troubleshooting Pages: 1 -->
<svg width="394pt" height="434pt"
 viewBox="0.00 0.00 393.50 434.00" xmlns="http://www.w3.org/2000/svg" xmlns:xlink="http://www.w3.org/1999/xlink">
<g id="graph0" class="graph" transform="scale(1 1) rotate(0) translate(4 430)">
<title>troubleshooting</title>
<polygon fill="white" stroke="none" points="-4,4 -4,-430 389.5,-430 389.5,4 -4,4"/>
<!-- power_check -->
<g id="node1" class="node">
<title>power_check</title>
<path fill="none" stroke="black" d="M70.38,-83C70.38,-83 14.62,-83 14.62,-83 8.62,-83 2.62,-77 2.62,-71 2.62,-71 2.62,-59 2.62,-59 2.62,-53 8.62,-47 14.62,-47 14.62,-47 70.38,-47 70.38,-47 76.38,-47 82.38,-53 82.38,-59 82.38,-59 82.38,-71 82.38,-71 82.38,-77 76.38,-83 70.38,-83"/>
<text text-anchor="middle" x="42.5" y="-67.5" font-family="Arial" font-size="10.00">Power/Display</text>
<text text-anchor="middle" x="42.5" y="-55.5" font-family="Arial" font-size="10.00">Working?</text>
</g>
<!-- no_power -->
<g id="node4" class="node">
<title>no_power</title>
<path fill="none" stroke="black" d="M261.88,-130C261.88,-130 172.38,-130 172.38,-130 166.38,-130 160.38,-124 160.38,-118 160.38,-118 160.38,-86 160.38,-86 160.38,-80 166.38,-74 172.38,-74 172.38,-74 261.88,-74 261.88,-74 267.88,-74 273.88,-80 273.88,-86 273.88,-86 273.88,-118 273.88,-118 273.88,-124 267.88,-130 261.88,-130"/>
<text text-anchor="middle" x="217.12" y="-116.5" font-family="Arial" font-size="10.00">No Power</text>
<text text-anchor="middle" x="217.12" y="-104.5" font-family="Arial" font-size="10.00">• Check GFCI/breaker</text>
<text text-anchor="middle" x="217.12" y="-92.5" font-family="Arial" font-size="10.00">• Test outlet (230V)</text>
<text text-anchor="middle" x="217.12" y="-80.5" font-family="Arial" font-size="10.00">• Check connections</text>
</g>
<!-- power_check&#45;&gt;no_power -->
<g id="edge1" class="edge">
<title>power_check&#45;&gt;no_power</title>
<path fill="none" stroke="black" d="M82.67,-73.4C102.24,-77.59 126.48,-82.79 148.91,-87.59"/>
<polygon fill="black" stroke="black" points="148.1,-91 158.61,-89.67 149.57,-84.15 148.1,-91"/>
<text text-anchor="middle" x="120.62" y="-86.76" font-family="Arial" font-size="8.00">No</text>
</g>
<!-- display_error -->
<g id="node5" class="node">
<title>display_error</title>
<path fill="none" stroke="black" d="M264.12,-56C264.12,-56 170.12,-56 170.12,-56 164.12,-56 158.12,-50 158.12,-44 158.12,-44 158.12,-12 158.12,-12 158.12,-6 164.12,0 170.12,0 170.12,0 264.12,0 264.12,0 270.12,0 276.12,-6 276.12,-12 276.12,-12 276.12,-44 276.12,-44 276.12,-50 270.12,-56 264.12,-56"/>
<text text-anchor="middle" x="217.12" y="-42.5" font-family="Arial" font-size="10.00">Display Error</text>
<text text-anchor="middle" x="217.12" y="-30.5" font-family="Arial" font-size="10.00">• Power cycle unit</text>
<text text-anchor="middle" x="217.12" y="-18.5" font-family="Arial" font-size="10.00">• Check error codes</text>
<text text-anchor="middle" x="217.12" y="-6.5" font-family="Arial" font-size="10.00">• Replace control board</text>
</g>
<!-- power_check&#45;&gt;display_error -->
<g id="edge2" class="edge">
<title>power_check&#45;&gt;display_error</title>
<path fill="none" stroke="black" d="M82.67,-56.6C101.56,-52.56 124.8,-47.57 146.56,-42.91"/>
<polygon fill="black" stroke="black" points="147.25,-46.34 156.29,-40.82 145.78,-39.5 147.25,-46.34"/>
<text text-anchor="middle" x="120.62" y="-54.13" font-family="Arial" font-size="8.00">Errors</text>
</g>
<!-- heating_check -->
<g id="node2" class="node">
<title>heating_check</title>
<path fill="none" stroke="black" d="M59.12,-231C59.12,-231 25.88,-231 25.88,-231 19.88,-231 13.88,-225 13.88,-219 13.88,-219 13.88,-207 13.88,-207 13.88,-201 19.88,-195 25.88,-195 25.88,-195 59.12,-195 59.12,-195 65.12,-195 71.12,-201 71.12,-207 71.12,-207 71.12,-219 71.12,-219 71.12,-225 65.12,-231 59.12,-231"/>
<text text-anchor="middle" x="42.5" y="-215.5" font-family="Arial" font-size="10.00">Heating</text>
<text text-anchor="middle" x="42.5" y="-203.5" font-family="Arial" font-size="10.00">Properly?</text>
</g>
<!-- no_heat -->
<g id="node6" class="node">
<title>no_heat</title>
<path fill="none" stroke="black" d="M265.25,-278C265.25,-278 169,-278 169,-278 163,-278 157,-272 157,-266 157,-266 157,-234 157,-234 157,-228 163,-222 169,-222 169,-222 265.25,-222 265.25,-222 271.25,-222 277.25,-228 277.25,-234 277.25,-234 277.25,-266 277.25,-266 277.25,-272 271.25,-278 265.25,-278"/>
<text text-anchor="middle" x="217.12" y="-264.5" font-family="Arial" font-size="10.00">No Heating</text>
<text text-anchor="middle" x="217.12" y="-252.5" font-family="Arial" font-size="10.00">• Check element</text>
<text text-anchor="middle" x="217.12" y="-240.5" font-family="Arial" font-size="10.00">• Test 230V at terminals</text>
<text text-anchor="middle" x="217.12" y="-228.5" font-family="Arial" font-size="10.00">• Replace element (E2)</text>
</g>
<!-- heating_check&#45;&gt;no_heat -->
<g id="edge3" class="edge">
<title>heating_check&#45;&gt;no_heat</title>
<path fill="none" stroke="black" d="M71.62,-219.03C91.68,-223.33 119.6,-229.31 145.55,-234.87"/>
<polygon fill="black" stroke="black" points="144.53,-238.23 155.04,-236.91 146,-231.39 144.53,-238.23"/>
<text text-anchor="middle" x="120.62" y="-234.76" font-family="Arial" font-size="8.00">No heat</text>
</g>
<!-- uneven_heat -->
<g id="node7" class="node">
<title>uneven_heat</title>
<path fill="none" stroke="black" d="M253.25,-204C253.25,-204 181,-204 181,-204 175,-204 169,-198 169,-192 169,-192 169,-160 169,-160 169,-154 175,-148 181,-148 181,-148 253.25,-148 253.25,-148 259.25,-148 265.25,-154 265.25,-160 265.25,-160 265.25,-192 265.25,-192 265.25,-198 259.25,-204 253.25,-204"/>
<text text-anchor="middle" x="217.12" y="-190.5" font-family="Arial" font-size="10.00">Uneven Heating</text>
<text text-anchor="middle" x="217.12" y="-178.5" font-family="Arial" font-size="10.00">• Clean fan blades</text>
<text text-anchor="middle" x="217.12" y="-166.5" font-family="Arial" font-size="10.00">• Check door seal</text>
<text text-anchor="middle" x="217.12" y="-154.5" font-family="Arial" font-size="10.00">• Use center rack</text>
</g>
<!-- heating_check&#45;&gt;uneven_heat -->
<g id="edge4" class="edge">
<title>heating_check&#45;&gt;uneven_heat</title>
<path fill="none" stroke="black" d="M71.62,-206.97C94.92,-201.98 128.8,-194.72 157.9,-188.48"/>
<polygon fill="black" stroke="black" points="158.27,-191.98 167.31,-186.46 156.8,-185.14 158.27,-191.98"/>
<text text-anchor="middle" x="120.62" y="-202.13" font-family="Arial" font-size="8.00">Uneven</text>
</g>
<!-- fan_check -->
<g id="node3" class="node">
<title>fan_check</title>
<path fill="none" stroke="black" d="M73,-379C73,-379 12,-379 12,-379 6,-379 0,-373 0,-367 0,-367 0,-355 0,-355 0,-349 6,-343 12,-343 12,-343 73,-343 73,-343 79,-343 85,-349 85,-355 85,-355 85,-367 85,-367 85,-373 79,-379 73,-379"/>
<text text-anchor="middle" x="42.5" y="-363.5" font-family="Arial" font-size="10.00">Fan/Mechanical</text>
<text text-anchor="middle" x="42.5" y="-351.5" font-family="Arial" font-size="10.00">Issues?</text>
</g>
<!-- fan_fail -->
<g id="node8" class="node">
<title>fan_fail</title>
<path fill="none" stroke="black" d="M266,-426C266,-426 168.25,-426 168.25,-426 162.25,-426 156.25,-420 156.25,-414 156.25,-414 156.25,-382 156.25,-382 156.25,-376 162.25,-370 168.25,-370 168.25,-370 266,-370 266,-370 272,-370 278,-376 278,-382 278,-382 278,-414 278,-414 278,-420 272,-426 266,-426"/>
<text text-anchor="middle" x="217.12" y="-412.5" font-family="Arial" font-size="10.00">Fan Problems</text>
<text text-anchor="middle" x="217.12" y="-400.5" font-family="Arial" font-size="10.00">• Check for obstructions</text>
<text text-anchor="middle" x="217.12" y="-388.5" font-family="Arial" font-size="10.00">• Test 24V at motor</text>
<text text-anchor="middle" x="217.12" y="-376.5" font-family="Arial" font-size="10.00">• Replace fan (E3)</text>
</g>
<!-- fan_check&#45;&gt;fan_fail -->
<g id="edge5" class="edge">
<title>fan_check&#45;&gt;fan_fail</title>
<path fill="none" stroke="black" d="M85.29,-369.96C103.14,-373.78 124.48,-378.36 144.71,-382.69"/>
<polygon fill="black" stroke="black" points="143.8,-386.08 154.31,-384.75 145.27,-379.23 143.8,-386.08"/>
<text text-anchor="middle" x="120.62" y="-382.76" font-family="Arial" font-size="8.00">Fan noise</text>
</g>
<!-- door_issues -->
<g id="node9" class="node">
<title>door_issues</title>
<path fill="none" stroke="black" d="M256.25,-352C256.25,-352 178,-352 178,-352 172,-352 166,-346 166,-340 166,-340 166,-308 166,-308 166,-302 172,-296 178,-296 178,-296 256.25,-296 256.25,-296 262.25,-296 268.25,-302 268.25,-308 268.25,-308 268.25,-340 268.25,-340 268.25,-346 262.25,-352 256.25,-352"/>
<text text-anchor="middle" x="217.12" y="-338.5" font-family="Arial" font-size="10.00">Door Problems</text>
<text text-anchor="middle" x="217.12" y="-326.5" font-family="Arial" font-size="10.00">• Check alignment</text>
<text text-anchor="middle" x="217.12" y="-314.5" font-family="Arial" font-size="10.00">• Inspect gasket</text>
<text text-anchor="middle" x="217.12" y="-302.5" font-family="Arial" font-size="10.00">• Adjust hinges (E5)</text>
</g>
<!-- fan_check&#45;&gt;door_issues -->
<g id="edge6" class="edge">
<title>fan_check&#45;&gt;door_issues</title>
<path fill="none" stroke="black" d="M85.29,-352.04C106.13,-347.58 131.73,-342.09 154.75,-337.16"/>
<polygon fill="black" stroke="black" points="155.28,-340.62 164.33,-335.1 153.82,-333.78 155.28,-340.62"/>
<text text-anchor="middle" x="120.62" y="-350.13" font-family="Arial" font-size="8.00">Door</text>
</g>
<!-- service -->
<g id="node10" class="node">
<title>service</title>
<polygon fill="lightyellow" stroke="black" points="385.5,-46 296,-46 296,-10 385.5,-10 385.5,-46"/>
<text text-anchor="middle" x="340.75" y="-30.5" font-family="Arial" font-size="10.00">Contact Service:</text>
<text text-anchor="middle" x="340.75" y="-18.5" font-family="Arial" font-size="10.00">+1&#45;555&#45;0199</text>
</g>
</g>
</svg>
