<?xml version="1.0" encoding="UTF-8" standalone="no"?>
<!DOCTYPE svg PUBLIC "-//W3C//DTD SVG 1.1//EN"
 "http://www.w3.org/Graphics/SVG/1.1/DTD/svg11.dtd">
<!-- Generated by graphviz version 12.2.1 (20241206.2353)
 -->
<!-- Title: G Pages: 1 -->
<svg width="324pt" height="44pt"
 viewBox="0.00 0.00 324.00 44.00" xmlns="http://www.w3.org/2000/svg" xmlns:xlink="http://www.w3.org/1999/xlink">
<g id="graph0" class="graph" transform="scale(1 1) rotate(0) translate(4 40)">
<title>G</title>
<!-- client -->
<g id="node1" class="node">
<title>client</title>
<path fill="#161b22" stroke="#30363d" stroke-width="1.2" d="M42,-36C42,-36 12,-36 12,-36 6,-36 0,-30 0,-24 0,-24 0,-12 0,-12 0,-6 6,0 12,0 12,0 42,0 42,0 48,0 54,-6 54,-12 54,-12 54,-24 54,-24 54,-30 48,-36 42,-36"/>
<text text-anchor="middle" x="27" y="-12.95" font-family="Times New Roman,serif" font-size="14.00" fill="#c9d1d9">Client</text>
</g>
<!-- apigw -->
<g id="node2" class="node">
<title>apigw</title>
<path fill="#161b22" stroke="#30363d" stroke-width="1.2" d="M189.5,-36C189.5,-36 124,-36 124,-36 118,-36 112,-30 112,-24 112,-24 112,-12 112,-12 112,-6 118,0 124,0 124,0 189.5,0 189.5,0 195.5,0 201.5,-6 201.5,-12 201.5,-12 201.5,-24 201.5,-24 201.5,-30 195.5,-36 189.5,-36"/>
<text text-anchor="middle" x="156.75" y="-12.95" font-family="Times New Roman,serif" font-size="14.00" fill="#c9d1d9">API Gateway</text>
</g>
<!-- client&#45;&gt;apigw -->
<g id="edge1" class="edge">
<title>client&#45;&gt;apigw</title>
<path fill="none" stroke="#8b949e" stroke-width="1.3" d="M54.47,-18C67.89,-18 84.71,-18 100.77,-18"/>
<polygon fill="#8b949e" stroke="#8b949e" stroke-width="1.3" points="100.74,-21.15 109.74,-18 100.74,-14.85 100.74,-21.15"/>
</g>
<!-- svc -->
<g id="node3" class="node">
<title>svc</title>
<path fill="#161b22" stroke="#30363d" stroke-width="1.2" d="M304,-36C304,-36 271.5,-36 271.5,-36 265.5,-36 259.5,-30 259.5,-24 259.5,-24 259.5,-12 259.5,-12 259.5,-6 265.5,0 271.5,0 271.5,0 304,0 304,0 310,0 316,-6 316,-12 316,-12 316,-24 316,-24 316,-30 310,-36 304,-36"/>
<text text-anchor="middle" x="287.75" y="-12.95" font-family="Times New Roman,serif" font-size="14.00" fill="#c9d1d9">Service</text>
</g>
<!-- apigw&#45;&gt;svc -->
<g id="edge2" class="edge">
<title>apigw&#45;&gt;svc</title>
<path fill="none" stroke="#8b949e" stroke-width="1.3" d="M201.78,-18C216.91,-18 233.7,-18 248.34,-18"/>
<polygon fill="#8b949e" stroke="#8b949e" stroke-width="1.3" points="248.09,-21.15 257.09,-18 248.09,-14.85 248.09,-21.15"/>
</g>
</g>
</svg>
