<?xml version="1.0" encoding="UTF-8" standalone="no"?>
<!DOCTYPE svg PUBLIC "-//W3C//DTD SVG 1.1//EN"
 "http://www.w3.org/Graphics/SVG/1.1/DTD/svg11.dtd">
<!-- Generated by graphviz version 12.2.1 (20241206.2353)
 -->
<!-- Title: G Pages: 1 -->
<svg width="717pt" height="647pt"
 viewBox="0.00 0.00 717.00 646.75" xmlns="http://www.w3.org/2000/svg" xmlns:xlink="http://www.w3.org/1999/xlink">
<g id="graph0" class="graph" transform="scale(1 1) rotate(0) translate(4 642.75)">
<title>G</title>
<g id="clust1" class="cluster">
<title>cluster_sources</title>
<path fill="#f0f8ff" stroke="black" d="M116,-556C116,-556 430,-556 430,-556 436,-556 442,-562 442,-568 442,-568 442,-618.75 442,-618.75 442,-624.75 436,-630.75 430,-630.75 430,-630.75 116,-630.75 116,-630.75 110,-630.75 104,-624.75 104,-618.75 104,-618.75 104,-568 104,-568 104,-562 110,-556 116,-556"/>
<text text-anchor="middle" x="273" y="-613.45" font-family="Calibri" font-size="14.00">Event Sources</text>
</g>
<g id="clust2" class="cluster">
<title>cluster_pipeline</title>
<path fill="#f0fff0" stroke="black" d="M208,-159C208,-159 351,-159 351,-159 357,-159 363,-165 363,-171 363,-171 363,-495.25 363,-495.25 363,-501.25 357,-507.25 351,-507.25 351,-507.25 208,-507.25 208,-507.25 202,-507.25 196,-501.25 196,-495.25 196,-495.25 196,-171 196,-171 196,-165 202,-159 208,-159"/>
<text text-anchor="middle" x="279.5" y="-489.95" font-family="Calibri" font-size="14.00">Webhook Pipeline</text>
</g>
<g id="clust3" class="cluster">
<title>cluster_destinations</title>
<path fill="#fffaf0" stroke="black" d="M20,-8C20,-8 332,-8 332,-8 338,-8 344,-14 344,-20 344,-20 344,-70.75 344,-70.75 344,-76.75 338,-82.75 332,-82.75 332,-82.75 20,-82.75 20,-82.75 14,-82.75 8,-76.75 8,-70.75 8,-70.75 8,-20 8,-20 8,-14 14,-8 20,-8"/>
<text text-anchor="middle" x="176" y="-65.45" font-family="Calibri" font-size="14.00">Customer Endpoints</text>
</g>
<!-- projects -->
<g id="node1" class="node">
<title>projects</title>
<path fill="#bbdefb" stroke="black" d="M161.5,-600.5C161.5,-600.5 124.5,-600.5 124.5,-600.5 118.5,-600.5 112.5,-594.5 112.5,-588.5 112.5,-588.5 112.5,-576 112.5,-576 112.5,-570 118.5,-564 124.5,-564 124.5,-564 161.5,-564 161.5,-564 167.5,-564 173.5,-570 173.5,-576 173.5,-576 173.5,-588.5 173.5,-588.5 173.5,-594.5 167.5,-600.5 161.5,-600.5"/>
<text text-anchor="middle" x="143" y="-583.2" font-family="Calibri" font-size="14.00">Projects</text>
<text text-anchor="middle" x="143" y="-568.95" font-family="Calibri" font-size="14.00">Service</text>
</g>
<!-- eventbus -->
<g id="node4" class="node">
<title>eventbus</title>
<path fill="#c8e6c9" stroke="black" d="M324.88,-477C324.88,-477 227.12,-477 227.12,-477 221.12,-477 215.12,-471 215.12,-465 215.12,-465 215.12,-452.5 215.12,-452.5 215.12,-446.5 221.12,-440.5 227.12,-440.5 227.12,-440.5 324.88,-440.5 324.88,-440.5 330.88,-440.5 336.88,-446.5 336.88,-452.5 336.88,-452.5 336.88,-465 336.88,-465 336.88,-471 330.88,-477 324.88,-477"/>
<text text-anchor="middle" x="276" y="-459.7" font-family="Calibri" font-size="14.00">Event Bus</text>
<text text-anchor="middle" x="276" y="-445.45" font-family="Calibri" font-size="14.00">(Message Routing)</text>
</g>
<!-- projects&#45;&gt;eventbus -->
<g id="edge1" class="edge">
<title>projects&#45;&gt;eventbus</title>
<path fill="none" stroke="black" stroke-width="1.5" d="M162.34,-563.58C185.19,-542.71 223.35,-507.85 249.08,-484.34"/>
<polygon fill="black" stroke="black" stroke-width="1.5" points="250.94,-486.43 254.96,-478.97 247.17,-482.3 250.94,-486.43"/>
</g>
<!-- reports -->
<g id="node2" class="node">
<title>reports</title>
<path fill="#bbdefb" stroke="black" d="M294.12,-600.5C294.12,-600.5 257.88,-600.5 257.88,-600.5 251.88,-600.5 245.88,-594.5 245.88,-588.5 245.88,-588.5 245.88,-576 245.88,-576 245.88,-570 251.88,-564 257.88,-564 257.88,-564 294.12,-564 294.12,-564 300.12,-564 306.12,-570 306.12,-576 306.12,-576 306.12,-588.5 306.12,-588.5 306.12,-594.5 300.12,-600.5 294.12,-600.5"/>
<text text-anchor="middle" x="276" y="-583.2" font-family="Calibri" font-size="14.00">Reports</text>
<text text-anchor="middle" x="276" y="-568.95" font-family="Calibri" font-size="14.00">Service</text>
</g>
<!-- reports&#45;&gt;eventbus -->
<g id="edge2" class="edge">
<title>reports&#45;&gt;eventbus</title>
<path fill="none" stroke="black" stroke-width="1.5" d="M276,-563.58C276,-543.61 276,-510.83 276,-487.44"/>
<polygon fill="black" stroke="black" stroke-width="1.5" points="278.8,-487.71 276,-479.71 273.2,-487.71 278.8,-487.71"/>
</g>
<!-- auth -->
<g id="node3" class="node">
<title>auth</title>
<path fill="#bbdefb" stroke="black" d="M422.25,-600.5C422.25,-600.5 389.75,-600.5 389.75,-600.5 383.75,-600.5 377.75,-594.5 377.75,-588.5 377.75,-588.5 377.75,-576 377.75,-576 377.75,-570 383.75,-564 389.75,-564 389.75,-564 422.25,-564 422.25,-564 428.25,-564 434.25,-570 434.25,-576 434.25,-576 434.25,-588.5 434.25,-588.5 434.25,-594.5 428.25,-600.5 422.25,-600.5"/>
<text text-anchor="middle" x="406" y="-583.2" font-family="Calibri" font-size="14.00">Auth</text>
<text text-anchor="middle" x="406" y="-568.95" font-family="Calibri" font-size="14.00">Service</text>
</g>
<!-- auth&#45;&gt;eventbus -->
<g id="edge3" class="edge">
<title>auth&#45;&gt;eventbus</title>
<path fill="none" stroke="black" stroke-width="1.5" d="M387.1,-563.58C364.76,-542.71 327.46,-507.85 302.31,-484.34"/>
<polygon fill="black" stroke="black" stroke-width="1.5" points="304.34,-482.41 296.58,-478.99 300.52,-486.5 304.34,-482.41"/>
</g>
<!-- formatter -->
<g id="node5" class="node">
<title>formatter</title>
<path fill="#c8e6c9" stroke="black" d="M300.88,-340.25C300.88,-340.25 251.12,-340.25 251.12,-340.25 245.12,-340.25 239.12,-334.25 239.12,-328.25 239.12,-328.25 239.12,-315.75 239.12,-315.75 239.12,-309.75 245.12,-303.75 251.12,-303.75 251.12,-303.75 300.88,-303.75 300.88,-303.75 306.88,-303.75 312.88,-309.75 312.88,-315.75 312.88,-315.75 312.88,-328.25 312.88,-328.25 312.88,-334.25 306.88,-340.25 300.88,-340.25"/>
<text text-anchor="middle" x="276" y="-322.95" font-family="Calibri" font-size="14.00">Webhook</text>
<text text-anchor="middle" x="276" y="-308.7" font-family="Calibri" font-size="14.00">Formatter</text>
</g>
<!-- eventbus&#45;&gt;formatter -->
<g id="edge4" class="edge">
<title>eventbus&#45;&gt;formatter</title>
<path fill="none" stroke="black" stroke-width="1.5" d="M276,-440.13C276,-417.34 276,-377.36 276,-350.54"/>
<polygon fill="black" stroke="black" stroke-width="1.5" points="278.8,-350.89 276,-342.89 273.2,-350.89 278.8,-350.89"/>
<text text-anchor="middle" x="294.38" y="-384.2" font-family="Calibri" font-size="14.00">Events</text>
</g>
<!-- delivery -->
<g id="node6" class="node">
<title>delivery</title>
<path fill="#c8e6c9" stroke="black" d="M294.5,-203.5C294.5,-203.5 257.5,-203.5 257.5,-203.5 251.5,-203.5 245.5,-197.5 245.5,-191.5 245.5,-191.5 245.5,-179 245.5,-179 245.5,-173 251.5,-167 257.5,-167 257.5,-167 294.5,-167 294.5,-167 300.5,-167 306.5,-173 306.5,-179 306.5,-179 306.5,-191.5 306.5,-191.5 306.5,-197.5 300.5,-203.5 294.5,-203.5"/>
<text text-anchor="middle" x="276" y="-186.2" font-family="Calibri" font-size="14.00">Delivery</text>
<text text-anchor="middle" x="276" y="-171.95" font-family="Calibri" font-size="14.00">Service</text>
</g>
<!-- formatter&#45;&gt;delivery -->
<g id="edge5" class="edge">
<title>formatter&#45;&gt;delivery</title>
<path fill="none" stroke="black" stroke-width="1.5" d="M276,-303.38C276,-280.59 276,-240.61 276,-213.79"/>
<polygon fill="black" stroke="black" stroke-width="1.5" points="278.8,-214.14 276,-206.14 273.2,-214.14 278.8,-214.14"/>
<text text-anchor="middle" x="315.38" y="-247.45" font-family="Calibri" font-size="14.00">JSON + HMAC</text>
</g>
<!-- endpoint1 -->
<g id="node7" class="node">
<title>endpoint1</title>
<path fill="#ffe0b2" stroke="black" d="M134,-52.5C134,-52.5 28,-52.5 28,-52.5 22,-52.5 16,-46.5 16,-40.5 16,-40.5 16,-28 16,-28 16,-22 22,-16 28,-16 28,-16 134,-16 134,-16 140,-16 146,-22 146,-28 146,-28 146,-40.5 146,-40.5 146,-46.5 140,-52.5 134,-52.5"/>
<text text-anchor="middle" x="81" y="-35.2" font-family="Calibri" font-size="14.00">Endpoint A</text>
<text text-anchor="middle" x="81" y="-20.95" font-family="Calibri" font-size="14.00">hooks.example.com</text>
</g>
<!-- delivery&#45;&gt;endpoint1 -->
<g id="edge6" class="edge">
<title>delivery&#45;&gt;endpoint1</title>
<path fill="none" stroke="black" stroke-width="1.5" d="M252.87,-166.57C217.83,-139.8 151.25,-88.93 112.04,-58.96"/>
<polygon fill="black" stroke="black" stroke-width="1.5" points="113.97,-56.92 105.91,-54.28 110.57,-61.36 113.97,-56.92"/>
<text text-anchor="middle" x="198.5" y="-103.58" font-family="Calibri" font-size="14.00">HTTPS POST</text>
</g>
<!-- endpoint2 -->
<g id="node8" class="node">
<title>endpoint2</title>
<path fill="#ffe0b2" stroke="black" d="M324,-52.5C324,-52.5 230,-52.5 230,-52.5 224,-52.5 218,-46.5 218,-40.5 218,-40.5 218,-28 218,-28 218,-22 224,-16 230,-16 230,-16 324,-16 324,-16 330,-16 336,-22 336,-28 336,-28 336,-40.5 336,-40.5 336,-46.5 330,-52.5 324,-52.5"/>
<text text-anchor="middle" x="277" y="-35.2" font-family="Calibri" font-size="14.00">Endpoint B</text>
<text text-anchor="middle" x="277" y="-20.95" font-family="Calibri" font-size="14.00">api.customer.com</text>
</g>
<!-- delivery&#45;&gt;endpoint2 -->
<g id="edge7" class="edge">
<title>delivery&#45;&gt;endpoint2</title>
<path fill="none" stroke="black" stroke-width="1.5" d="M276.12,-166.57C276.29,-140.92 276.61,-93.14 276.81,-62.83"/>
<polygon fill="black" stroke="black" stroke-width="1.5" points="279.61,-63.19 276.87,-55.17 274.01,-63.16 279.61,-63.19"/>
<text text-anchor="middle" x="285.5" y="-103.58" font-family="Calibri" font-size="14.00">HTTPS POST</text>
</g>
<!-- retry_queue -->
<g id="node9" class="node">
<title>retry_queue</title>
<path fill="#f3e5f5" stroke="black" d="M586.38,-203.5C586.38,-203.5 473.62,-203.5 473.62,-203.5 467.62,-203.5 461.62,-197.5 461.62,-191.5 461.62,-191.5 461.62,-179 461.62,-179 461.62,-173 467.62,-167 473.62,-167 473.62,-167 586.38,-167 586.38,-167 592.38,-167 598.38,-173 598.38,-179 598.38,-179 598.38,-191.5 598.38,-191.5 598.38,-197.5 592.38,-203.5 586.38,-203.5"/>
<text text-anchor="middle" x="530" y="-186.2" font-family="Calibri" font-size="14.00">Retry Queue</text>
<text text-anchor="middle" x="530" y="-171.95" font-family="Calibri" font-size="14.00">(Exponential Backoff)</text>
</g>
<!-- delivery&#45;&gt;retry_queue -->
<g id="edge8" class="edge">
<title>delivery&#45;&gt;retry_queue</title>
<path fill="none" stroke="black" stroke-width="1.5" stroke-dasharray="5,2" d="M306.89,-185.25C342.5,-185.25 402.39,-185.25 451.15,-185.25"/>
<polygon fill="black" stroke="black" stroke-width="1.5" points="451.11,-188.05 459.11,-185.25 451.11,-182.45 451.11,-188.05"/>
<text text-anchor="middle" x="384.06" y="-203.45" font-family="Calibri" font-size="14.00">Failed</text>
<text text-anchor="middle" x="384.06" y="-189.2" font-family="Calibri" font-size="14.00">Deliveries</text>
</g>
<!-- monitoring -->
<g id="node11" class="node">
<title>monitoring</title>
<path fill="#f0f0f0" stroke="black" d="M528.25,-52.5C528.25,-52.5 471.75,-52.5 471.75,-52.5 465.75,-52.5 459.75,-46.5 459.75,-40.5 459.75,-40.5 459.75,-28 459.75,-28 459.75,-22 465.75,-16 471.75,-16 471.75,-16 528.25,-16 528.25,-16 534.25,-16 540.25,-22 540.25,-28 540.25,-28 540.25,-40.5 540.25,-40.5 540.25,-46.5 534.25,-52.5 528.25,-52.5"/>
<text text-anchor="middle" x="500" y="-35.2" font-family="Calibri" font-size="14.00">Delivery</text>
<text text-anchor="middle" x="500" y="-20.95" font-family="Calibri" font-size="14.00">Monitoring</text>
</g>
<!-- delivery&#45;&gt;monitoring -->
<g id="edge11" class="edge">
<title>delivery&#45;&gt;monitoring</title>
<path fill="none" stroke="black" stroke-width="1.5" d="M302.58,-166.57C342.99,-139.69 419.95,-88.5 464.91,-58.59"/>
<polygon fill="black" stroke="black" stroke-width="1.5" points="466.46,-60.92 471.57,-54.16 463.36,-56.26 466.46,-60.92"/>
<text text-anchor="middle" x="429.44" y="-103.58" font-family="Calibri" font-size="14.00">Metrics</text>
</g>
<!-- retry_queue&#45;&gt;delivery -->
<g id="edge9" class="edge">
<title>retry_queue&#45;&gt;delivery</title>
<path fill="none" stroke="black" stroke-width="1.5" stroke-dasharray="5,2" d="M461.38,-185.25C415.16,-185.25 355.76,-185.25 316.82,-185.25"/>
<polygon fill="black" stroke="black" stroke-width="1.5" points="317.16,-182.45 309.16,-185.25 317.16,-188.05 317.16,-182.45"/>
<text text-anchor="middle" x="384.06" y="-203.45" font-family="Calibri" font-size="14.00">Retry</text>
<text text-anchor="middle" x="384.06" y="-189.2" font-family="Calibri" font-size="14.00">Attempts</text>
</g>
<!-- dead_letter -->
<g id="node10" class="node">
<title>dead_letter</title>
<path fill="#ffebee" stroke="black" d="M697,-52.5C697,-52.5 639,-52.5 639,-52.5 633,-52.5 627,-46.5 627,-40.5 627,-40.5 627,-28 627,-28 627,-22 633,-16 639,-16 639,-16 697,-16 697,-16 703,-16 709,-22 709,-28 709,-28 709,-40.5 709,-40.5 709,-46.5 703,-52.5 697,-52.5"/>
<text text-anchor="middle" x="668" y="-35.2" font-family="Calibri" font-size="14.00">Dead Letter</text>
<text text-anchor="middle" x="668" y="-20.95" font-family="Calibri" font-size="14.00">Queue</text>
</g>
<!-- retry_queue&#45;&gt;dead_letter -->
<g id="edge10" class="edge">
<title>retry_queue&#45;&gt;dead_letter</title>
<path fill="none" stroke="black" stroke-width="1.5" stroke-dasharray="5,2" d="M546.37,-166.57C570.86,-140.14 617.11,-90.2 644.98,-60.1"/>
<polygon fill="black" stroke="black" stroke-width="1.5" points="646.72,-62.34 650.11,-54.57 642.62,-58.54 646.72,-62.34"/>
<text text-anchor="middle" x="647.83" y="-110.7" font-family="Calibri" font-size="14.00">Max Retries</text>
<text text-anchor="middle" x="647.83" y="-96.45" font-family="Calibri" font-size="14.00">Exceeded</text>
</g>
<!-- retry_queue&#45;&gt;monitoring -->
<g id="edge12" class="edge">
<title>retry_queue&#45;&gt;monitoring</title>
<path fill="none" stroke="black" stroke-width="1.5" d="M526.44,-166.57C521.28,-140.92 511.66,-93.14 505.55,-62.83"/>
<polygon fill="black" stroke="black" stroke-width="1.5" points="508.33,-62.42 504,-55.13 502.84,-63.53 508.33,-62.42"/>
<text text-anchor="middle" x="547.62" y="-103.58" font-family="Calibri" font-size="14.00">Retry Stats</text>
</g>
</g>
</svg>
